<?xml version="1.0" encoding="UTF-8" standalone="no"?>
<svg
   width="581.360pt"
   height="121.059pt"
   version="1.1"
   viewBox="-351.120 640.229 581.360 121.059"
   id="svg1"
   sodipodi:docname="logo.svg"
   inkscape:version="1.4.2 (f4327f4, 2025-05-13)"
   xmlns:inkscape="http://www.inkscape.org/namespaces/inkscape"
   xmlns:sodipodi="http://sodipodi.sourceforge.net/DTD/sodipodi-0.dtd"
   xmlns="http://www.w3.org/2000/svg"
   xmlns:svg="http://www.w3.org/2000/svg">
  <sodipodi:namedview
     id="namedview1"
     pagecolor="#ffffff"
     bordercolor="#000000"
     borderopacity="0.25"
     inkscape:showpageshadow="2"
     inkscape:pageopacity="0.0"
     inkscape:pagecheckerboard="0"
     inkscape:deskcolor="#d1d1d1"
     inkscape:document-units="pt"
     inkscape:zoom="2.2376836"
     inkscape:cx="326.00677"
     inkscape:cy="19.439746"
     inkscape:window-width="2560"
     inkscape:window-height="1511"
     inkscape:window-x="-9"
     inkscape:window-y="-9"
     inkscape:window-maximized="1"
     inkscape:current-layer="svg1" />
  <!--
	Exported with Concepts: Smarter Sketching
	Version: 2025.7.5 on Microsoft Windows NT 10.0.26100.0
	https://concepts.app/
	-->
  <title
     id="title1">Drawing 2</title>
  <desc
     id="desc1">Drawing exported from Concepts: Smarter Sketching</desc>
  <defs
     id="defs1" />
  <g
     id="Pen"
     opacity="1.000">
    <path
       id="STROKE_161bba3f-f088-4125-9112-5c7f6f58b10c"
       opacity="1.000"
       fill="none"
       stroke="#000000"
       stroke-width="2.990"
       stroke-opacity="1.000"
       stroke-linecap="round"
       stroke-linejoin="round"
       d="M -329.911 721.750 Q -329.133 720.434 -329.204 720.738 Q -328.138 719.425 -325.036 715.414 Q -321.934 711.402 -317.347 705.468 Q -312.760 699.534 -305.261 690.662 Q -297.762 681.789 -293.450 676.846 Q -289.139 671.903 -287.328 669.808 Q -285.518 667.713 -283.037 665.388 Q -280.555 663.063 -277.706 660.287 Q -274.856 657.511 -266.973 648.962 Q -266.592 649.429 -266.448 652.204 Q -266.304 654.979 -267.978 659.925 Q -269.653 664.871 -270.760 667.256 Q -271.867 669.641 -272.505 670.998 Q -273.144 672.355 -273.927 674.458 Q -274.711 676.561 -276.071 678.759 Q -277.432 680.956 -278.217 682.762 Q -279.001 684.567 -281.098 688.416 Q -283.194 692.265 -286.234 696.721 Q -289.273 701.177 -291.778 704.759 Q -294.283 708.341 -295.505 709.928 Q -296.727 711.515 -297.455 712.347 Q -298.183 713.180 -298.884 713.822 Q -299.585 714.465 -300.230 715.359 Q -300.875 716.252 -301.370 717.027 Q -301.864 717.802 -303.220 719.317 Q -304.576 720.831 -305.413 721.568 Q -306.250 722.304 -306.910 722.804 Q -307.570 723.304 -307.779 723.230 Q -307.988 723.156 -308.961 722.893 Q -309.934 722.629 -310.311 721.115 Q -310.688 719.601 -310.884 718.831 Q -311.081 718.061 -311.274 717.409 Q -311.468 716.758 -311.470 715.845 Q -311.472 714.933 -311.526 711.931 Q -311.579 708.929 -311.531 707.171 Q -311.482 705.412 -309.846 702.985 Q -308.210 700.558 -306.219 698.815 Q -304.228 697.072 -301.120 696.330 Q -298.012 695.588 -295.637 695.728 Q -293.262 695.868 -291.965 696.892 Q -290.668 697.917 -289.304 698.635 Q -287.941 699.353 -285.622 699.398 Q -283.303 699.443 -282.149 699.106 Q -280.996 698.769 -279.265 697.859 Q -277.535 696.948 -273.976 695.496 Q -270.417 694.043 -267.873 693.277 Q -265.329 692.511 -264.146 692.552 Q -262.963 692.594 -261.578 692.306 Q -260.193 692.019 -260.176 706.100 Q -259.551 707.021 -257.617 703.981 Q -255.682 700.942 -254.199 699.523 Q -252.715 698.105 -251.692 696.756 Q -250.668 695.408 -243.851 689.775 Q -243.188 690.094 -243.350 694.195 Q -243.513 698.296 -243.560 700.853 Q -243.608 703.410 -242.636 705.722 Q -241.664 708.033 -239.649 708.758 Q -237.634 709.482 -234.660 707.450 " />
    <path
       id="STROKE_8eeee82f-6cd6-441a-85c2-75c1d3c50918"
       opacity="1.000"
       fill="none"
       stroke="#000000"
       stroke-width="2.990"
       stroke-opacity="1.000"
       stroke-linecap="round"
       stroke-linejoin="round"
       d="M -225.148 694.531 Q -225.777 693.993 -226.166 697.532 Q -226.554 701.071 -226.543 703.078 Q -226.532 705.085 -226.278 706.747 Q -226.024 708.409 -224.750 709.922 Q -223.476 711.436 -221.829 711.873 Q -220.182 712.310 -219.021 712.270 Q -217.860 712.230 -216.823 711.607 Q -215.785 710.985 -215.623 709.152 Q -215.460 707.320 -215.784 706.263 Q -216.108 705.206 -216.414 703.906 Q -216.719 702.607 -215.000 700.135 Q -213.282 697.664 -211.772 696.232 Q -210.263 694.800 -209.584 694.216 Q -208.906 693.631 -206.091 693.519 Q -205.477 694.404 -205.406 697.934 Q -205.335 701.464 -204.996 703.742 Q -204.657 706.020 -204.064 706.965 Q -203.471 707.910 -202.311 708.049 Q -201.150 708.188 -200.402 708.227 Q -199.655 708.267 -198.342 705.750 Q -197.030 703.234 -195.371 698.904 Q -193.711 694.574 -190.104 690.450 Q -189.430 690.477 -188.487 693.867 Q -187.544 697.258 -186.823 699.076 Q -186.102 700.894 -185.644 701.716 Q -185.186 702.538 -184.588 703.125 Q -183.990 703.712 -183.882 703.823 Q -183.775 703.935 -182.877 704.049 Q -181.980 704.163 -180.494 704.067 Q -179.008 703.971 -177.523 702.019 " />
    <path
       id="STROKE_7fc76451-33b8-47b5-8ec1-7f488bef1775"
       opacity="1.000"
       fill="none"
       stroke="#000000"
       stroke-width="2.990"
       stroke-opacity="1.000"
       stroke-linecap="round"
       stroke-linejoin="round"
       d="M -158.498 693.181 Q -159.038 692.624 -160.789 692.351 Q -162.539 692.077 -164.193 693.565 Q -165.847 695.052 -166.648 696.236 Q -167.448 697.419 -168.503 699.623 Q -169.557 701.828 -169.023 705.425 Q -169.383 705.348 -167.684 705.522 Q -165.986 705.696 -164.638 704.844 Q -163.291 703.992 -161.553 701.769 Q -159.816 699.546 -160.185 696.588 Q -161.244 697.277 -161.225 698.322 Q -161.206 699.366 -161.180 699.238 Q -161.155 699.110 -161.141 699.146 Q -161.126 699.181 -161.209 700.711 Q -161.292 702.242 -160.943 703.430 Q -160.593 704.618 -158.633 705.054 Q -156.673 705.489 -154.063 705.561 Q -151.453 705.634 -148.922 704.249 Q -146.391 702.864 -144.669 701.079 Q -142.946 699.295 -142.373 697.880 Q -141.800 696.464 -140.861 694.411 Q -139.921 692.359 -139.466 689.569 Q -139.011 686.779 -138.559 684.268 Q -138.106 681.757 -137.048 674.462 Q -136.543 673.859 -136.646 680.917 Q -136.749 687.975 -136.705 693.159 Q -136.661 698.343 -136.760 701.378 Q -136.860 704.414 -136.373 707.450 Q -135.642 707.076 -136.511 703.505 Q -137.381 699.934 -138.441 697.340 Q -139.500 694.747 -144.535 693.181 L -144.535 692.844 Q -143.564 692.420 -138.796 690.933 Q -134.029 689.447 -129.931 688.226 Q -125.834 687.004 -120.385 686.368 " />
    <path
       id="STROKE_1793268f-d868-40d5-b428-62efad983653"
       opacity="1.000"
       fill="none"
       stroke="#000000"
       stroke-width="2.990"
       stroke-opacity="1.000"
       stroke-linecap="round"
       stroke-linejoin="round"
       d="M -121.060 701.344 Q -119.888 700.979 -115.965 698.473 Q -112.041 695.966 -110.388 694.566 Q -108.735 693.166 -107.957 692.444 Q -107.179 691.721 -106.860 690.447 Q -106.540 689.173 -106.988 688.456 Q -107.435 687.739 -108.031 687.468 Q -108.627 687.198 -108.489 687.297 Q -108.351 687.397 -109.461 687.007 Q -110.570 686.617 -112.640 688.146 Q -114.711 689.675 -116.022 691.164 Q -117.333 692.652 -117.744 695.386 Q -118.154 698.121 -117.193 699.303 Q -116.231 700.485 -114.420 701.369 Q -112.608 702.253 -107.972 702.503 Q -103.336 702.754 -99.549 702.786 Q -95.762 702.818 -92.918 702.118 Q -90.074 701.419 -87.328 700.239 Q -84.583 699.059 -80.280 696.588 " />
    <path
       id="STROKE_067dc8fb-7dff-48fc-86cf-68ea5bd51045"
       opacity="1.000"
       fill="none"
       stroke="#000000"
       stroke-width="2.990"
       stroke-opacity="1.000"
       stroke-linecap="round"
       stroke-linejoin="round"
       d="M -74.142 686.368 Q -74.221 686.185 -75.386 685.457 Q -76.552 684.730 -78.824 685.207 Q -81.095 685.685 -83.305 687.771 Q -85.515 689.858 -87.158 691.655 Q -88.802 693.452 -89.089 695.859 Q -89.376 698.266 -88.089 700.669 Q -86.977 700.735 -85.011 700.771 Q -83.045 700.807 -81.994 700.054 Q -80.943 699.301 -80.254 698.582 Q -79.565 697.863 -77.667 696.375 Q -75.769 694.886 -74.781 692.398 Q -73.793 689.910 -73.579 687.237 Q -73.366 684.564 -73.467 665.624 L -73.805 665.624 Q -73.967 666.354 -74.320 674.502 Q -74.672 682.649 -75.085 687.377 Q -75.499 692.105 -75.557 695.383 Q -75.615 698.662 -75.240 700.740 Q -74.866 702.819 -74.245 704.533 Q -73.624 706.248 -72.842 706.487 Q -72.061 706.726 -70.463 707.047 Q -68.864 707.367 -63.248 702.693 " />
    <path
       id="STROKE_59502ded-09f2-4562-9f8f-cf67968e90f9"
       opacity="1.000"
       fill="none"
       stroke="#000000"
       stroke-width="2.990"
       stroke-opacity="1.000"
       stroke-linecap="round"
       stroke-linejoin="round"
       d="M -22.435 662.555 Q -22.215 662.153 -22.598 667.038 Q -22.982 671.923 -23.349 676.678 Q -23.717 681.433 -24.211 686.192 Q -24.704 690.950 -24.155 702.019 Q -23.744 701.755 -23.817 688.425 " />
    <path
       id="STROKE_043c11c0-d86a-4b19-a539-da3246664221"
       opacity="1.000"
       fill="none"
       stroke="#000000"
       stroke-width="2.990"
       stroke-opacity="1.000"
       stroke-linecap="round"
       stroke-linejoin="round"
       d="M -27.224 664.612 Q -27.670 663.759 -28.403 662.494 Q -29.136 661.229 -29.315 659.911 Q -29.493 658.593 -29.006 657.322 Q -28.519 656.050 -27.701 655.779 Q -26.883 655.508 -26.067 655.326 Q -25.250 655.145 -24.339 655.178 Q -23.428 655.211 -21.483 655.029 Q -19.539 654.846 -16.783 656.184 Q -14.027 657.522 -11.340 659.587 Q -8.653 661.652 -6.537 665.348 Q -4.421 669.045 -2.978 673.029 Q -1.535 677.013 -1.449 680.836 Q -1.363 684.658 -1.427 686.877 Q -1.491 689.096 -2.328 691.556 Q -3.164 694.015 -6.052 696.281 Q -8.941 698.547 -10.973 699.878 Q -13.006 701.209 -17.211 701.265 Q -21.416 701.321 -23.829 701.401 Q -26.243 701.481 -28.018 700.919 Q -29.793 700.357 -30.522 699.720 Q -31.250 699.083 -31.530 698.749 Q -31.811 698.415 -31.990 697.936 Q -32.169 697.457 -31.994 696.957 Q -31.819 696.457 -31.283 696.135 Q -30.748 695.812 -29.923 695.913 " />
    <path
       id="STROKE_fb960064-f802-4542-b4ca-f2f37c8a9861"
       opacity="1.000"
       fill="none"
       stroke="#000000"
       stroke-width="2.990"
       stroke-opacity="1.000"
       stroke-linecap="round"
       stroke-linejoin="round"
       d="M 8.158 682.962 Q 8.388 683.202 8.188 687.064 Q 7.988 690.926 8.184 693.658 Q 8.379 696.390 8.808 697.870 Q 9.236 699.351 9.746 699.969 Q 10.256 700.588 13.309 700.990 Q 16.361 701.391 25.833 693.856 " />
    <path
       id="STROKE_8f0b937e-44fa-4b55-9668-b51990ccdf23"
       opacity="1.000"
       fill="none"
       stroke="#000000"
       stroke-width="2.990"
       stroke-opacity="1.000"
       stroke-linecap="round"
       stroke-linejoin="round"
       d="M 33.995 682.962 Q 34.231 682.711 33.658 680.937 Q 32.818 680.819 31.245 680.980 Q 29.671 681.141 29.945 681.106 Q 30.220 681.071 28.840 681.728 Q 27.460 682.385 26.026 683.771 Q 24.593 685.158 23.741 686.137 Q 22.889 687.116 22.410 688.164 Q 21.931 689.213 21.811 689.922 Q 21.692 690.632 21.718 691.263 Q 21.743 691.894 23.375 692.351 Q 25.007 692.809 26.999 692.448 Q 28.990 692.087 30.595 691.103 Q 32.200 690.119 33.288 689.067 Q 34.375 688.015 33.658 685.018 Q 32.582 685.652 32.509 687.591 Q 32.436 689.530 32.812 690.926 Q 33.188 692.322 34.541 693.275 Q 35.894 694.229 36.790 695.219 Q 37.686 696.208 42.126 696.522 Q 46.566 696.836 51.335 696.453 Q 56.103 696.069 59.364 695.220 Q 62.625 694.371 65.295 692.506 " />
    <path
       id="STROKE_9718ce23-d12a-4d48-89cf-2a0950d44f29"
       opacity="1"
       fill="none"
       stroke="#000000"
       stroke-width="2.99"
       stroke-opacity="1"
       stroke-linecap="round"
       stroke-linejoin="round"
       d="m 64.62,684.344 c -0.35,-0.658 -0.982,-1.19433 -1.896,-1.609 -0.913333,-0.41533 -2.165333,-0.61233 -3.756,-0.591 -1.59,0.0213 -3.123667,0.579 -4.601,1.673 -1.477333,1.094 -2.531667,1.978 -3.163,2.652 -0.630667,0.674 -1.058333,1.51167 -1.283,2.513 -0.224,1.002 -0.364333,1.89133 -0.421,2.668 -0.05667,0.77733 0.215667,1.33367 0.817,1.669 0.601333,0.33533 1.469333,0.50667 2.604,0.514 1.135333,0.007 2.272333,-0.0423 3.411,-0.149 1.138,-0.10667 2.554333,-0.887 4.249,-2.341 1.694,-1.454 2.815667,-4.13 3.365,-8.028 -0.554667,1.24667 -0.354,4.12667 0.602,8.64 0.956,4.51333 1.775333,8.25 2.458,11.21 0.683333,2.96067 1.081667,5.275 1.195,6.943 0.114,1.66867 0.227,2.89633 0.339,3.683 0.111333,0.786 0.169667,1.987 0.175,3.603 0.0047,1.616 -0.009,3.07267 -0.041,4.37 -0.032,1.29733 -0.336,2.43967 -0.912,3.427 -0.576667,0.98733 -1.134667,1.76833 -1.674,2.343 -0.539333,0.57467 -1.37,0.91867 -2.492,1.032 -1.122,0.11333 -2.139667,0.109 -3.053,-0.013 -0.914,-0.12267 -1.734667,-0.45567 -2.462,-0.999 -0.728,-0.54333 -1.562,-1.54733 -2.502,-3.012 -0.94,-1.46533 -1.649333,-2.99 -2.128,-4.574 -0.478667,-1.58467 -0.522667,-3.33367 -0.132,-5.247 0.390667,-1.914 1.458667,-3.95467 3.204,-6.122 1.745333,-2.16733 4.352667,-4.58667 7.822,-7.258 3.47,-2.67133 6.162333,-4.564 8.077,-5.678 1.915333,-1.11333 3.461667,-2.02567 4.639,-2.737 1.177333,-0.71133 2.145,-1.06833 2.903,-1.071 0.758667,-0.003 1.640333,-0.008 2.645,-0.014 1.005333,-0.005 1.409,1.11333 1.211,3.356 -0.198667,2.24267 -0.273,4.45067 -0.223,6.624 0.04933,2.17333 0.638333,4.04967 1.767,5.629 0.736667,0.004 1.230333,-1.84167 1.481,-5.537 0.250667,-3.69467 0.325333,-6.59267 0.224,-8.694 -0.101333,-2.10067 -0.04567,-3.75667 0.167,-4.968 0.212667,-1.21067 0.509333,-2.39467 0.89,-3.552 0.380667,-1.158 1.479,-1.78567 3.295,-1.883 1.815333,-0.0973 4.080567,0.69728 7.046,0.99 3.77075,0.37221 9.43795,0.84725 13.92062,1.57325 -0.624,0.25333 -1.25991,0.90191 -4.29528,2.87588 -1.12745,1.24582 -3.65262,2.80169 -5.28692,7.69724 -1.36502,4.08895 4.47968,5.76312 9.59412,0.97109 1.79467,-1.60592 2.50546,-2.84213 3.30546,-3.37346 0.80067,-0.532 1.24267,-1.08333 1.326,-1.654 0.084,-0.57067 -0.15575,-2.59871 -0.36375,-2.82537 -0.20733,-0.22667 -1.09908,-3.5102 -1.37175,-3.51087 0.19797,2.09011 -0.30717,7.16557 -0.1725,8.31224 0.13467,1.14667 1.004,1.895 2.608,2.245 1.60333,0.35 3.20967,0.48633 4.819,0.409 1.60867,-0.0773 2.95033,-0.54767 4.025,-1.411 1.07533,-0.864 1.82067,-1.717 2.236,-2.559 0.41467,-0.842 0.566,-1.77367 0.454,-2.795 -0.112,-1.022 0.0263,-2.06433 0.415,-3.127 0.388,-1.062 0.71867,-2.064 0.992,-3.006 0.27333,-0.94133 1.38333,-1.276 3.33,-1.004 0.10267,-0.768 -0.235,3.774 -1.013,13.626 1.10333,1.05 2.74567,1.308 4.927,0.774 2.182,-0.534 4.058,-1.50333 5.628,-2.908 1.57,-1.404 5.984,-5.797 13.242,-13.179 0.17267,-0.45667 0.30367,-0.0157 0.393,1.323 0.0893,1.338 0.088,2.975 -0.004,4.911 -0.0913,1.93533 -0.022,3.61767 0.208,5.047 0.23,1.43 0.87867,2.65067 1.946,3.662 1.06733,1.01133 2.06867,1.776 3.004,2.294 0.93467,0.518 2.37433,0.664 4.319,0.438"
       sodipodi:nodetypes="ccssccssssccsccccscsscccccsccscccccssccssccsccccsscsccscccccccsccscc" />
    <path
       id="STROKE_4716ca08-63b7-4a07-817b-2ac720982e43"
       opacity="1.000"
       fill="none"
       stroke="#000000"
       stroke-width="2.990"
       stroke-opacity="1.000"
       stroke-linecap="round"
       stroke-linejoin="round"
       d="M 184.326 679.588 Q 184.970 678.447 184.290 678.047 Q 183.609 677.646 182.503 677.568 Q 181.397 677.490 180.809 677.518 Q 180.220 677.546 179.144 677.558 Q 178.068 677.571 176.614 677.597 Q 175.160 677.623 173.877 678.543 Q 172.593 679.464 171.933 680.121 Q 171.273 680.777 171.184 682.095 Q 171.095 683.412 174.179 685.844 Q 177.263 688.275 178.967 689.909 Q 180.670 691.542 181.278 692.198 Q 181.885 692.853 183.432 695.280 Q 184.980 697.706 184.138 698.558 Q 183.297 699.410 182.280 700.023 Q 181.263 700.635 176.900 701.463 Q 172.536 702.292 166.652 702.019 " />
    <path
       id="STROKE_f54a49cb-f526-47e6-817d-47664f196815"
       opacity="1"
       fill="none"
       stroke="#d3dbdc"
       stroke-width="2.992"
       stroke-opacity="1"
       stroke-linecap="round"
       stroke-linejoin="round"
       d="m -285.017,725.831 c 15.65089,0.12727 34.19228,-0.59965 50.912,-1.232 37.94176,-0.81088 75.73586,-4.33584 113.735,-4.267 43.957555,2.25696 87.994711,-0.20792 131.925,-1.37 6.420874,2.20507 16.419595,-1.18133 21.091,2.113" />
    <path
       id="STROKE_7a733d0b-4e01-4f9a-a4a4-9c3c9c602200"
       opacity="1"
       fill="none"
       stroke="#d3dbdc"
       stroke-width="2.992"
       stroke-opacity="1"
       stroke-linecap="round"
       stroke-linejoin="round"
       d="m 85.027,723.775 c 22.18714,-2.80385 44.87947,-1.26906 67.264,-2.726 15.25734,-1.87316 37.72906,3.87432 48.358,-2.332 -2.52342,-17.60492 1.84818,-36.3662 -6.539,-52.824 C 158,666.76422 121.98195,663.94158 85.961563,661.93612 59.459349,660.67047 33.025,658.8277 6.471,659.181 h 1.012" />
    <path
       id="STROKE_4258f96b-3c93-4914-82f0-26699781f6c8"
       opacity="1"
       fill="none"
       stroke="#d3dbdc"
       stroke-width="2.992"
       stroke-opacity="1"
       stroke-linecap="round"
       stroke-linejoin="round"
       d="m -43.549,661.88 c -5.141193,-0.11024 -25.026967,0.46919 -22.43,-0.674" />
    <path
       id="STROKE_e29e8531-27e7-4ff0-aff2-ae3faf04065c"
       opacity="1"
       fill="none"
       stroke="#d3dbdc"
       stroke-width="2.992"
       stroke-opacity="1"
       stroke-linecap="round"
       stroke-linejoin="round"
       d="m -87.735,663.262 c -51.25684,-1.97095 -102.60929,0.27656 -153.86275,0.89025 -0.799,-0.86698 -8.16389,2.52524 -6.68825,0.45975" />
    <path
       id="STROKE_2c03b973-97c3-4c64-b282-6790930f5a4a"
       opacity="1"
       fill="none"
       stroke="#d3dbdc"
       stroke-width="2.992"
       stroke-opacity="1"
       stroke-linecap="round"
       stroke-linejoin="round"
       d="m -296.554,665.962 c -14.81532,5.91987 -48.0221,-8.7258 -40.94862,17.61925 0.48821,16.57154 -3.14475,37.67528 0.41962,51.48175 6.68416,-2.6369 14.41338,0.78322 20.798,-2.419" />
    <path
       id="STROKE_fe1a83f8-f0da-4e55-ad2d-fd0fea35463b"
       opacity="0.253"
       fill="none"
       stroke="#3dd4cf"
       stroke-width="12"
       stroke-opacity="0.253"
       stroke-linecap="round"
       stroke-linejoin="round"
       d="m -330.585,682.962 c 21.7251,0.97967 43.54122,-0.68164 65.3015,-1.987 24.61628,-1.70983 48.74694,-5.06323 73.55025,-4.1 38.34172,-3.75288 76.83108,1.21011 115.30625,-0.019 30.926545,0.28542 61.865962,-0.43453 92.731,-0.392 30.692133,1.01348 61.389782,0.85154 92.104,1.47 19.19966,1.40952 38.24153,3.67687 57.5145,4.0955 12.51051,-2.06871 35.48737,8.67386 18.7325,21.3125 -17.30736,7.94393 -36.45419,0.14593 -54.543,0.728 -26.8346,-0.29545 -53.621965,-2.13626 -80.5725,-1.3865 -52.4217091,2.34904 -104.957343,2.88296 -157.4775,2.8905 -34.69646,3.06547 -69.47393,3.43308 -104.25225,4.73575 -30.79177,2.33914 -61.60486,5.42939 -92.52175,5.52625 -13.13251,5.67396 -34.95456,3.90025 -29.893,-15.129 23.40973,-4.55304 47.25146,2.47699 70.8605,-0.72875 40.37134,-1.19486 80.84085,-0.0772 121.17225,-3.3425 45.556504,-2.01901 91.22159,-2.14797 136.81975,-3.45075 44.675513,0.18663 89.355255,0.14002 133.97825,-1.40125 12.57861,0.69415 31.27132,1.95847 40.45025,2.07225" />
    <path
       id="STROKE_e185fc35-c0bd-46a4-80e4-00b9ea1b4b95"
       opacity="0.249"
       fill="none"
       stroke="#ed5d47"
       stroke-width="12"
       stroke-opacity="0.249"
       stroke-linecap="round"
       stroke-linejoin="round"
       d="m -312.879,744.888 c 17.77303,-5.37551 38.94937,-2.05058 57.964,-3.993 40.74764,-2.00368 81.73588,0.73061 122.4295,-2.8615 36.05415,-0.0908 72.099432,-0.61317 108.1495,-0.9765 36.981573,-1.12509 73.989073,-2.49114 111.025,-1.035 31.54479,-2.17444 62.87369,3.70216 94.4685,2.715 14.48977,-1.81354 41.69566,4.09194 30.2745,-19.007 -4.56275,-10.15533 -5.25444,-23.46461 -3.968,-33.362" />
    <path
       id="STROKE_357b4bde-0761-49f5-a049-9e9752893762"
       opacity="1.000"
       fill="none"
       stroke="#000000"
       stroke-width="2.990"
       stroke-opacity="1.000"
       stroke-linecap="round"
       stroke-linejoin="round"
       d="M -225.823 682.962 Q -225.823 682.856 -225.823 684.006 Q -225.823 682.703 -225.823 682.287 " />
    <path
       id="STROKE_8d182bfc-2ab7-4d3f-87fe-c97e41b64af5"
       opacity="1.000"
       fill="none"
       stroke="#000000"
       stroke-width="2.990"
       stroke-opacity="1.000"
       stroke-linecap="round"
       stroke-linejoin="round"
       d="M 8.833 672.100 Q 9.170 672.100 9.508 673.112 L 9.508 672.775 " />
  </g>
</svg>
